<svg width="148" height="40" viewBox="0 0 148 40" fill="none" xmlns="http://www.w3.org/2000/svg">
<g id="netflix-4 1" clip-path="url(#clip0_4_339)">
<path id="Vector" d="M20.3407 37.4125C18.1154 37.8033 15.8509 37.9204 13.5085 38.2325L6.36369 17.3063V39.1306C4.1384 39.3648 2.10828 39.6771 0 39.9894V0.0107422H5.9345L14.055 22.6943V0.0107422H20.3407V37.4125ZM32.6389 14.6514C35.0596 14.6514 38.7685 14.5342 40.9938 14.5342V20.7808C38.2217 20.7808 34.9815 20.7808 32.6389 20.8979V30.19C36.3089 29.9558 39.9788 29.6432 43.6876 29.526V35.5381L26.392 36.9049V0.0107422H43.6876V6.25742H32.6389V14.6514ZM66.9174 6.25756H60.4365V34.9922C58.3282 34.9922 56.22 34.9922 54.1901 35.0701V6.25756H47.7093V0.0107422H66.9176L66.9174 6.25756ZM77.0681 14.222H85.6184V20.4686H77.0681V34.6409H70.9382V0.0107422H88.3903V6.25742H77.0681V14.222ZM98.5411 29.1749C102.094 29.2527 105.686 29.5265 109.16 29.7214V35.89C103.578 35.5384 97.9946 35.1875 92.2946 35.0701V0.0107422H98.5411V29.1749ZM114.431 36.3195C116.422 36.4368 118.53 36.554 120.561 36.7879V0.0107422H114.431V36.3195ZM147.929 0.0107422L140.003 19.0241L147.929 39.9894C145.586 39.6771 143.244 39.2476 140.901 38.8571L136.412 27.301L131.844 37.9204C129.579 37.5297 127.393 37.4125 125.129 37.1002L133.171 18.7896L125.91 0.0107422H132.624L136.724 10.513L141.097 0.0107422H147.929Z" fill="#D81F26"/>
</g>
<defs>
<clipPath id="clip0_4_339">
<rect width="147.929" height="40" fill="white"/>
</clipPath>
</defs>
</svg>
