<svg width="209" height="35" viewBox="0 0 209 35" fill="none" xmlns="http://www.w3.org/2000/svg">
<path id="Vector" d="M169.305 13.8886V34.9796H176.046V20.9189H200.7V34.9796H207.442V13.8886H169.305ZM175.276 7.05085H201.278C204.938 6.37671 207.538 3.1023 208.309 0.0205078H168.245C169.016 3.1023 171.712 6.2804 175.276 7.05085ZM148.791 34.9796C152.162 33.535 153.992 31.031 154.762 28.1419H124.426V0.116814H117.588V34.9796H148.791ZM67.0276 6.95454H91.1041C94.7638 5.89517 97.7493 3.1023 98.5197 0.116814H60.3825V20.7263H91.5857V27.9493H67.1239C63.2717 29.0086 59.9973 31.6089 58.3601 34.9796H98.3271V13.8886H67.1239L67.0276 6.95454ZM7.70314 7.05085H33.7058C37.3654 6.37671 40.062 3.1023 40.7361 0.0205078H0.576492C1.34694 3.1023 4.04351 6.2804 7.70314 7.05085ZM7.70314 20.8226H33.7058C37.3654 20.1485 40.062 16.8741 40.7361 13.7923H0.576492C1.34694 16.8741 4.04351 20.0522 7.70314 20.8226ZM7.70314 34.9796H33.7058C37.3654 34.3055 40.062 31.031 40.7361 27.9493H0.576492C1.34694 31.031 4.04351 34.3055 7.70314 34.9796Z" fill="#5E5E5E"/>
</svg>
